<mxfile host="app.diagrams.net" modified="2023-05-03T07:31:03.221Z" agent="Mozilla/5.0 (Windows NT 10.0; Win64; x64) AppleWebKit/537.36 (KHTML, like Gecko) Chrome/112.0.0.0 Safari/537.36" etag="ZKjzi8zuNmt-3GiTMJok" version="21.2.6" type="device">
  <diagram name="페이지-1" id="3R82vR7Nw4MuuUEBh-W0">
    <mxGraphModel dx="1434" dy="796" grid="1" gridSize="10" guides="1" tooltips="1" connect="1" arrows="1" fold="1" page="1" pageScale="1" pageWidth="827" pageHeight="1169" math="0" shadow="0">
      <root>
        <mxCell id="0" />
        <mxCell id="1" parent="0" />
        <mxCell id="fu2NH9DaMl8bmsuvRgkj-4" style="edgeStyle=orthogonalEdgeStyle;rounded=0;orthogonalLoop=1;jettySize=auto;html=1;entryX=0;entryY=0.5;entryDx=0;entryDy=0;" edge="1" parent="1" source="fu2NH9DaMl8bmsuvRgkj-1" target="fu2NH9DaMl8bmsuvRgkj-3">
          <mxGeometry relative="1" as="geometry" />
        </mxCell>
        <mxCell id="fu2NH9DaMl8bmsuvRgkj-7" style="edgeStyle=orthogonalEdgeStyle;rounded=0;orthogonalLoop=1;jettySize=auto;html=1;entryX=0;entryY=0.5;entryDx=0;entryDy=0;" edge="1" parent="1" source="fu2NH9DaMl8bmsuvRgkj-1" target="fu2NH9DaMl8bmsuvRgkj-5">
          <mxGeometry relative="1" as="geometry" />
        </mxCell>
        <mxCell id="fu2NH9DaMl8bmsuvRgkj-10" style="edgeStyle=orthogonalEdgeStyle;rounded=0;orthogonalLoop=1;jettySize=auto;html=1;" edge="1" parent="1" source="fu2NH9DaMl8bmsuvRgkj-1" target="fu2NH9DaMl8bmsuvRgkj-21">
          <mxGeometry relative="1" as="geometry">
            <mxPoint x="310" y="240" as="targetPoint" />
            <Array as="points" />
          </mxGeometry>
        </mxCell>
        <mxCell id="fu2NH9DaMl8bmsuvRgkj-23" style="edgeStyle=orthogonalEdgeStyle;rounded=0;orthogonalLoop=1;jettySize=auto;html=1;entryX=0.5;entryY=1;entryDx=0;entryDy=0;exitX=0.5;exitY=0;exitDx=0;exitDy=0;" edge="1" parent="1" source="fu2NH9DaMl8bmsuvRgkj-1" target="fu2NH9DaMl8bmsuvRgkj-2">
          <mxGeometry relative="1" as="geometry" />
        </mxCell>
        <mxCell id="fu2NH9DaMl8bmsuvRgkj-1" value="로그인" style="rounded=1;whiteSpace=wrap;html=1;" vertex="1" parent="1">
          <mxGeometry x="240" y="130" width="140" height="60" as="geometry" />
        </mxCell>
        <mxCell id="fu2NH9DaMl8bmsuvRgkj-2" value="회원가입" style="rounded=1;whiteSpace=wrap;html=1;" vertex="1" parent="1">
          <mxGeometry x="238.5" y="30" width="143" height="60" as="geometry" />
        </mxCell>
        <mxCell id="fu2NH9DaMl8bmsuvRgkj-3" value="ID 찾기" style="rounded=1;whiteSpace=wrap;html=1;" vertex="1" parent="1">
          <mxGeometry x="680" y="170" width="120" height="60" as="geometry" />
        </mxCell>
        <mxCell id="fu2NH9DaMl8bmsuvRgkj-5" value="PW 찾기" style="rounded=1;whiteSpace=wrap;html=1;" vertex="1" parent="1">
          <mxGeometry x="680" y="80" width="120" height="60" as="geometry" />
        </mxCell>
        <mxCell id="fu2NH9DaMl8bmsuvRgkj-28" style="edgeStyle=orthogonalEdgeStyle;rounded=0;orthogonalLoop=1;jettySize=auto;html=1;" edge="1" parent="1" source="fu2NH9DaMl8bmsuvRgkj-21" target="fu2NH9DaMl8bmsuvRgkj-27">
          <mxGeometry relative="1" as="geometry" />
        </mxCell>
        <mxCell id="fu2NH9DaMl8bmsuvRgkj-63" style="edgeStyle=orthogonalEdgeStyle;rounded=0;orthogonalLoop=1;jettySize=auto;html=1;" edge="1" parent="1" source="fu2NH9DaMl8bmsuvRgkj-21" target="fu2NH9DaMl8bmsuvRgkj-30">
          <mxGeometry relative="1" as="geometry" />
        </mxCell>
        <mxCell id="fu2NH9DaMl8bmsuvRgkj-21" value="메인" style="rounded=1;whiteSpace=wrap;html=1;" vertex="1" parent="1">
          <mxGeometry x="240" y="350" width="140" height="60" as="geometry" />
        </mxCell>
        <mxCell id="fu2NH9DaMl8bmsuvRgkj-33" style="edgeStyle=orthogonalEdgeStyle;rounded=0;orthogonalLoop=1;jettySize=auto;html=1;" edge="1" parent="1" source="fu2NH9DaMl8bmsuvRgkj-27">
          <mxGeometry relative="1" as="geometry">
            <mxPoint x="310" y="600" as="targetPoint" />
          </mxGeometry>
        </mxCell>
        <mxCell id="fu2NH9DaMl8bmsuvRgkj-27" value="룰렛&lt;br&gt;카테고리 설정" style="rounded=1;whiteSpace=wrap;html=1;" vertex="1" parent="1">
          <mxGeometry x="240" y="470" width="140" height="60" as="geometry" />
        </mxCell>
        <mxCell id="fu2NH9DaMl8bmsuvRgkj-30" value="회원정보&lt;br&gt;(수정, 탈퇴)" style="rounded=1;whiteSpace=wrap;html=1;" vertex="1" parent="1">
          <mxGeometry x="520" y="350" width="140" height="60" as="geometry" />
        </mxCell>
        <mxCell id="fu2NH9DaMl8bmsuvRgkj-43" style="edgeStyle=orthogonalEdgeStyle;rounded=0;orthogonalLoop=1;jettySize=auto;html=1;entryX=1;entryY=0.5;entryDx=0;entryDy=0;" edge="1" parent="1" source="fu2NH9DaMl8bmsuvRgkj-34" target="fu2NH9DaMl8bmsuvRgkj-38">
          <mxGeometry relative="1" as="geometry" />
        </mxCell>
        <mxCell id="fu2NH9DaMl8bmsuvRgkj-57" style="edgeStyle=orthogonalEdgeStyle;rounded=0;orthogonalLoop=1;jettySize=auto;html=1;entryX=1;entryY=0.5;entryDx=0;entryDy=0;" edge="1" parent="1" source="fu2NH9DaMl8bmsuvRgkj-34" target="fu2NH9DaMl8bmsuvRgkj-27">
          <mxGeometry relative="1" as="geometry">
            <Array as="points">
              <mxPoint x="500" y="630" />
              <mxPoint x="500" y="500" />
            </Array>
          </mxGeometry>
        </mxCell>
        <mxCell id="fu2NH9DaMl8bmsuvRgkj-34" value="룰렛 결과&lt;br&gt;(NO! / OK!)&amp;nbsp;" style="rounded=1;whiteSpace=wrap;html=1;" vertex="1" parent="1">
          <mxGeometry x="250" y="600" width="140" height="60" as="geometry" />
        </mxCell>
        <mxCell id="fu2NH9DaMl8bmsuvRgkj-37" value="NO! 누를 시" style="text;html=1;strokeColor=none;fillColor=none;align=center;verticalAlign=middle;whiteSpace=wrap;rounded=0;" vertex="1" parent="1">
          <mxGeometry x="390" y="600" width="80" height="30" as="geometry" />
        </mxCell>
        <mxCell id="fu2NH9DaMl8bmsuvRgkj-44" style="edgeStyle=orthogonalEdgeStyle;rounded=0;orthogonalLoop=1;jettySize=auto;html=1;entryX=0;entryY=0.5;entryDx=0;entryDy=0;" edge="1" parent="1" source="fu2NH9DaMl8bmsuvRgkj-38" target="fu2NH9DaMl8bmsuvRgkj-21">
          <mxGeometry relative="1" as="geometry">
            <Array as="points">
              <mxPoint x="100" y="380" />
            </Array>
          </mxGeometry>
        </mxCell>
        <mxCell id="fu2NH9DaMl8bmsuvRgkj-38" value="가게 정보" style="rounded=1;whiteSpace=wrap;html=1;" vertex="1" parent="1">
          <mxGeometry x="30" y="600" width="140" height="60" as="geometry" />
        </mxCell>
        <mxCell id="fu2NH9DaMl8bmsuvRgkj-42" value="OK! 누를 시" style="text;html=1;strokeColor=none;fillColor=none;align=center;verticalAlign=middle;whiteSpace=wrap;rounded=0;" vertex="1" parent="1">
          <mxGeometry x="181.75" y="600" width="68.25" height="30" as="geometry" />
        </mxCell>
        <mxCell id="fu2NH9DaMl8bmsuvRgkj-45" value="&lt;font style=&quot;font-size: 20px;&quot;&gt;확인!&amp;nbsp;&lt;/font&gt;" style="text;html=1;strokeColor=none;fillColor=none;align=center;verticalAlign=middle;whiteSpace=wrap;rounded=0;" vertex="1" parent="1">
          <mxGeometry x="40" y="510" width="60" height="30" as="geometry" />
        </mxCell>
      </root>
    </mxGraphModel>
  </diagram>
</mxfile>
